<svg width="24" height="24" viewBox="0 0 24 24" fill="none" xmlns="http://www.w3.org/2000/svg">
<g clip-path="url(#clip0)">
<path d="M9.69188 16.9088H7.98938V18.7069C7.98938 19.5206 8.68313 20.1806 9.53813 20.1806H9.8475C10.7025 20.1806 11.3963 19.5206 11.3963 18.7069V16.9088H9.69188Z" fill="#DBA689"/>
<path d="M15.7275 9.8025C15.7275 9.8025 16.8319 9.99375 16.8319 11.1844C16.8319 12.2344 16.0256 12.6487 15.2194 12.6487V9.8025H15.7275Z" fill="#DBA689"/>
<path d="M3.67499 9.8025C3.67499 9.8025 2.57062 9.99375 2.57062 11.1844C2.57062 12.2344 3.37687 12.6487 4.18312 12.6487V9.8025H3.67499Z" fill="#DBA689"/>
<path d="M9.70126 2.01C4.93876 2.01 3.69376 5.70187 3.69376 10.8881C3.69376 16.2656 7.14938 17.6569 9.70126 17.6569C12.2156 17.6569 15.7088 16.3069 15.7088 10.8881C15.7088 5.70187 14.4638 2.01 9.70126 2.01Z" fill="#FADCBC"/>
<path d="M7.72312 11.3681C7.72312 11.9044 7.36499 12.3375 6.92062 12.3375C6.47812 12.3375 6.11624 11.9025 6.11624 11.3681C6.11624 10.8319 6.47624 10.3969 6.92062 10.3969C7.36499 10.3987 7.72312 10.8319 7.72312 11.3681Z" fill="#262626"/>
<path d="M11.6794 11.3681C11.6794 11.9044 12.0375 12.3375 12.4838 12.3375C12.9263 12.3375 13.2863 11.9025 13.2863 11.3681C13.2863 10.8319 12.9263 10.3969 12.4838 10.3969C12.0375 10.3987 11.6794 10.8319 11.6794 11.3681Z" fill="#262626"/>
<path d="M11.4394 14.6437H9.70124H7.96311C7.76436 14.6437 7.67811 14.7769 7.80936 14.9794C7.99311 15.2606 8.67936 15.8006 9.70124 15.8006C10.7231 15.8006 11.4094 15.2606 11.5931 14.9794C11.7244 14.7787 11.64 14.6437 11.4394 14.6437Z" fill="#262626"/>
<path d="M10.5412 13.1663C10.245 13.2506 9.9375 13.29 9.70125 13.29C9.465 13.29 9.1575 13.2488 8.86125 13.1663C8.73562 13.1306 8.685 13.2506 8.73 13.3294C8.82375 13.4944 9.2025 13.8281 9.70125 13.8281C10.2 13.8281 10.5787 13.4944 10.6725 13.3294C10.7175 13.2506 10.6687 13.1306 10.5412 13.1663Z" fill="#DBA689"/>
<path d="M9.84562 1.33125C9.84562 1.33125 9.75187 1.3275 9.71249 1.32937C9.67312 1.32937 9.57937 1.33125 9.57937 1.33125C4.43999 1.43062 3.28874 4.56 2.89124 6.6675C2.54249 8.51625 2.89312 10.2825 2.89312 10.2825C2.89312 10.2825 2.97562 10.1981 3.12562 10.08C3.28687 9.95437 3.46499 9.885 3.46499 9.885L3.72374 11.625L5.43562 8.0475C5.44687 8.025 5.46937 8.01187 5.49374 8.01562L6.50811 8.12812C7.52811 8.24062 8.55374 8.29687 9.57749 8.29875V8.30062C9.62249 8.30062 9.66562 8.29875 9.71062 8.29875C9.75562 8.29875 9.79874 8.30062 9.84374 8.30062V8.29875C10.8675 8.295 11.8931 8.24062 12.9131 8.12812L13.9275 8.01562C13.9519 8.01375 13.9744 8.02687 13.9856 8.0475L15.6975 11.625L15.9562 9.885C15.9562 9.885 16.1344 9.95625 16.2956 10.08C16.4475 10.1981 16.5281 10.2825 16.5281 10.2825C16.5281 10.2825 16.8825 8.77312 16.8825 6.68812C16.8844 4.54312 14.9831 1.43062 9.84562 1.33125Z" fill="#312D2D"/>
<path d="M1.53186 22.1306V24H17.8706V22.1306C17.8706 19.2862 13.905 18.3806 9.80623 18.3862C5.73561 18.39 1.53186 19.1175 1.53186 22.1306Z" fill="#C4C6C7"/>
<path d="M9.52689 19.4062H10.0894V24H9.52689V19.4062Z" fill="#959699"/>
<path d="M11.1038 20.8088C11.3409 20.8088 11.5331 20.6165 11.5331 20.3794C11.5331 20.1422 11.3409 19.95 11.1038 19.95C10.8666 19.95 10.6744 20.1422 10.6744 20.3794C10.6744 20.6165 10.8666 20.8088 11.1038 20.8088Z" fill="#959699"/>
<path d="M11.1038 22.9688C11.3409 22.9688 11.5331 22.7765 11.5331 22.5394C11.5331 22.3022 11.3409 22.11 11.1038 22.11C10.8666 22.11 10.6744 22.3022 10.6744 22.5394C10.6744 22.7765 10.8666 22.9688 11.1038 22.9688Z" fill="#959699"/>
<path d="M19.0988 20.1769C19.38 20.2462 19.56 20.445 19.6856 20.6925C19.9988 20.6362 20.5388 20.58 20.6963 20.5837C20.8819 20.5894 21.1275 20.61 21.1688 20.9906C21.195 21.2381 21.1013 21.4425 20.7844 21.4725C20.6663 21.4837 20.5444 21.4912 20.4244 21.4969L20.4675 21.6356C20.5781 21.6337 20.6775 21.63 20.7544 21.63C21.075 21.6262 21.2569 21.7969 21.2569 22.1362C21.2569 22.4344 21 22.575 20.8125 22.5862C20.7131 22.5919 20.4356 22.5769 20.1619 22.5506L20.1338 22.6087L20.1225 22.6256C20.295 22.6519 20.46 22.68 20.5763 22.7006C20.8894 22.7569 21.0394 22.965 21.0038 23.2125C20.9606 23.5125 20.6925 23.595 20.5069 23.5894C20.3681 23.5856 19.8806 23.5087 19.5544 23.4394L19.4906 23.5312C19.5131 23.535 19.5375 23.5387 19.5638 23.5425C19.5675 23.5425 19.5713 23.5444 19.5769 23.5444L19.6425 23.5556C19.6481 23.5556 19.6519 23.5575 19.6575 23.5575C19.6838 23.5612 19.71 23.5669 19.7363 23.5706H19.74C19.7681 23.5744 19.7963 23.58 19.8244 23.5856C19.83 23.5856 19.8356 23.5875 19.8394 23.5875L19.905 23.5987C19.9144 23.6006 19.9219 23.6025 19.9313 23.6025C19.95 23.6062 19.9688 23.61 19.9856 23.6119L20.0138 23.6175C20.0325 23.6212 20.0494 23.625 20.0663 23.6269L20.0925 23.6325C20.1169 23.6381 20.1431 23.6419 20.1656 23.6475C20.4525 23.7075 20.5613 23.8369 20.5256 24.0637C20.4769 24.3825 20.1563 24.4538 19.9856 24.4369C19.815 24.4219 19.2413 24.3037 19.0538 24.2212L19.02 24.2044L18.9544 24.2981C18.1106 24.2419 17.505 23.8894 17.505 23.8894C17.01 23.6119 16.9275 23.3981 16.845 23.0588C16.7513 22.6725 16.7738 22.215 16.7775 22.1437C16.8075 21.375 16.9781 20.8781 17.5988 20.4656C17.7488 20.3662 17.9681 20.1919 18.4538 20.1356C18.6413 20.1169 18.9113 20.13 19.0988 20.1769Z" fill="#FADCBC"/>
<path d="M19.8 21.4537C19.8 21.4537 19.8075 21.0675 19.6856 20.6925L19.8206 20.6681C19.8206 20.6681 19.9162 20.9344 19.95 21.3281C19.9556 21.3919 19.9575 21.45 19.9575 21.5062L20.0775 21.4988L20.8819 21.4537C20.8819 21.4537 20.8219 21.465 20.8219 21.555C20.8219 21.5925 20.8444 21.6169 20.8612 21.6319C20.8275 21.6281 20.79 21.6244 20.7525 21.6262L19.9537 21.6469C19.9519 21.6694 19.9519 21.6919 19.95 21.7162C19.9312 22.0425 19.8544 22.3556 19.6725 22.4756C20.2762 22.5469 20.8125 22.5825 20.8125 22.5825C20.7075 22.6256 20.7525 22.7531 20.7525 22.7531C20.3456 22.6425 19.3594 22.5844 19.3594 22.5844C18.9431 22.5487 18.8869 22.83 18.8869 22.83C18.81 23.1694 19.1794 23.325 19.1794 23.325C19.2281 23.3531 19.6687 23.4412 19.9837 23.5012L20.2987 23.5594L20.3869 23.5762C20.3775 23.5744 20.34 23.5725 20.325 23.6344C20.3175 23.6644 20.325 23.685 20.3306 23.6981C20.2837 23.6775 20.2275 23.6587 20.1619 23.6456C20.0137 23.6156 19.5656 23.5425 19.5319 23.5369L19.4194 23.5219C19.0481 23.4731 18.9581 23.5387 18.9581 23.5387C18.7519 23.6475 18.8119 23.91 18.8119 23.91C18.8569 24.1631 19.1362 24.2419 19.1362 24.2419C19.2431 24.2737 19.8094 24.4106 19.8094 24.4106L18.9525 24.2981C18.8925 24.2794 18.87 24.2512 18.8362 24.225C18.5344 23.9775 18.6619 23.6419 18.6619 23.6419C18.7087 23.5125 18.8062 23.4544 18.8062 23.4544C18.8644 23.4187 18.9319 23.4 19.0012 23.3925C18.6506 23.2069 18.7069 22.8319 18.7069 22.8319C18.7519 22.6012 18.9187 22.5038 19.05 22.4625C19.0387 22.4531 19.0256 22.4437 19.0144 22.4325C19.0144 22.4325 18.7894 22.2844 18.8719 21.6487C18.9 21.435 18.8962 21.405 18.8737 21.27C18.8737 21.27 18.7931 20.9812 18.5531 21.0731C18.5531 21.0731 18.4725 21.0937 18.3469 21.1931C18.3469 21.1931 18.2456 21.2719 18.2475 21.1481C18.2475 21.1106 18.2737 21.0431 18.3244 20.985C18.3244 20.985 18.3769 20.9231 18.5062 20.8875C18.5062 20.8875 18.8419 20.7544 19.0087 21.09C19.0969 21.2663 19.08 21.3825 19.0519 21.5625C19.0519 21.5625 18.9994 22.1306 19.1475 22.3125C19.1475 22.3125 19.2937 22.4794 19.5281 22.3762C19.53 22.38 19.8487 22.2037 19.8 21.4537Z" fill="#E49500"/>
<path d="M23.9084 15.2346C24.1996 13.1621 22.7555 11.2461 20.683 10.9549C18.6106 10.6638 16.6945 12.1079 16.4034 14.1804C16.1122 16.2528 17.5563 18.1689 19.6288 18.46C21.7013 18.7511 23.6173 17.3071 23.9084 15.2346Z" fill="#575757"/>
<path d="M19.7569 23.2388L18.2513 22.9238L19.3388 16.7681L20.6363 16.95L19.7569 23.2388Z" fill="#575757"/>
<path d="M22.4194 14.8031C22.755 16.3463 21.5662 17.865 20.1769 16.8244C18.7875 15.7856 17.4956 15.9488 18.0356 14.6175C18.5756 13.2863 19.0087 12.1125 20.0606 12.4163C21.1125 12.72 22.0837 13.26 22.4194 14.8031Z" fill="white"/>
<path d="M20.1563 15.6844C20.7362 15.6844 21.2063 15.2143 21.2063 14.6344C21.2063 14.0545 20.7362 13.5844 20.1563 13.5844C19.5764 13.5844 19.1063 14.0545 19.1063 14.6344C19.1063 15.2143 19.5764 15.6844 20.1563 15.6844Z" fill="#FBC11B"/>
<path d="M20.7919 22.5844H20.8125C20.9981 22.5731 21.255 22.4325 21.2569 22.1344C21.2569 21.8081 21.09 21.6394 20.7919 21.63L20.7787 21.5606L20.8762 21.555C21.0412 21.5156 21.1275 21.4162 21.1575 21.2887C21.1687 21.27 21.1725 21.0562 21.1706 21.0319C21.1556 20.8312 21.0825 20.7375 21.0825 20.7375C21.0075 20.5462 20.5462 20.5894 20.5462 20.5894L19.7044 20.7019C19.6744 20.6925 19.6444 20.6831 19.6162 20.6737C19.4944 20.4825 19.3312 20.3344 19.0969 20.2762C18.9094 20.2312 18.6412 20.2162 18.4519 20.2387C17.9662 20.295 17.7469 20.4694 17.5969 20.5687C17.565 20.5894 17.5387 20.6119 17.5106 20.6344C17.6812 20.9438 17.94 21.2681 18.2569 21.2137C18.2775 21.1669 18.3112 21.1181 18.3262 21.1012C18.3937 21.0281 18.4875 20.9756 18.5869 20.9644C18.7425 20.9456 18.9037 21.0225 18.9881 21.1537C19.1194 21.3562 18.9675 21.6244 18.9581 21.8663C18.9544 21.9806 19.0481 22.0912 19.0706 22.2037C19.0912 22.3106 19.1325 22.4231 19.2244 22.4813C19.23 22.485 19.2394 22.485 19.245 22.4888C19.2394 22.5075 19.2262 22.545 19.2112 22.5937C19.1512 22.5975 19.0931 22.6088 19.0425 22.6369C18.9262 22.7006 18.8662 22.8413 18.8812 22.9706C18.8925 23.0663 18.9431 23.1544 19.0144 23.22C18.9694 23.3662 18.9319 23.4975 18.9131 23.5744C18.7837 23.6738 18.7706 23.8856 18.8606 24.0262C18.9544 24.1744 19.1269 24.255 19.2975 24.2981C19.4681 24.3412 19.6444 24.3562 19.8112 24.4125C19.8019 24.4106 19.7944 24.4106 19.785 24.4087C19.8694 24.4237 19.9406 24.435 19.9856 24.4387C20.1544 24.4537 20.4769 24.3825 20.5256 24.0656C20.5537 23.8838 20.4862 23.7656 20.3119 23.6944C20.2987 23.6475 20.2762 23.595 20.2631 23.5556C20.295 23.5612 20.3287 23.5688 20.3606 23.5744C20.4225 23.5819 20.475 23.5875 20.5069 23.5875C20.6925 23.5931 20.9625 23.5106 21.0037 23.2106C21.0319 23.0119 20.94 22.8412 20.7412 22.7512C20.6681 22.7362 20.5931 22.725 20.52 22.7119C20.55 22.6631 20.58 22.6144 20.61 22.5675L20.7919 22.5844Z" fill="#FADCBC"/>
<path d="M20.8744 21.6356C20.8482 21.6019 20.8425 21.5475 20.8425 21.5475H20.8369C20.7694 21.5419 19.9613 21.5081 19.9613 21.5081C19.9575 21.2475 19.8507 20.9362 19.7775 20.6869C19.7288 20.6812 19.6706 20.6869 19.62 20.67C19.6838 20.9156 19.8019 21.2025 19.8094 21.4537C19.815 21.6225 19.8038 21.7894 19.7681 21.9544C19.74 22.0875 19.695 22.2225 19.5975 22.3181C19.5 22.4137 19.3406 22.4531 19.2263 22.38C19.1344 22.3219 19.095 22.2094 19.0725 22.1025C19.05 21.99 19.0407 21.8756 19.0463 21.7631C19.0556 21.5212 19.1213 21.2569 18.9919 21.0544C18.9075 20.9231 18.7444 20.8462 18.5906 20.865C18.4913 20.8762 18.3975 20.9287 18.33 21.0019C18.2982 21.0375 18.1744 21.2137 18.3019 21.2175C18.3375 21.2175 18.3694 21.1931 18.3975 21.1706C18.4838 21.1012 18.5925 21.0375 18.6994 21.0694C18.8307 21.1087 18.8813 21.2681 18.8869 21.405C18.8944 21.5925 18.855 21.7781 18.855 21.9637C18.855 22.1512 18.9056 22.3519 19.05 22.47C18.855 22.5131 18.7107 22.7062 18.705 22.9069C18.6994 23.1075 18.825 23.2987 18.9994 23.3962C18.8363 23.4 18.6938 23.5312 18.6506 23.6887C18.6075 23.8462 18.6563 24.0187 18.7556 24.1481C18.7988 24.2044 18.8513 24.2531 18.915 24.2831C18.9281 24.2887 18.9431 24.2925 18.9581 24.2962L19.0181 24.21L18.9975 24.2381L18.9563 24.2962C18.9994 24.3094 19.0463 24.3169 19.0913 24.3244C19.1175 24.3281 19.1438 24.3319 19.1719 24.3337C19.3763 24.36 19.5806 24.3862 19.785 24.4106C19.7944 24.4125 19.8019 24.4125 19.8113 24.4144C19.6444 24.3581 19.4681 24.3431 19.2975 24.3C19.1269 24.2569 18.9563 24.1762 18.8606 24.0281C18.7669 23.88 18.7838 23.6531 18.9319 23.5612C19.0219 23.505 19.1325 23.5087 19.2375 23.5162C19.4044 23.5275 19.5694 23.5481 19.7344 23.5744C19.7794 23.5819 19.8244 23.5894 19.8675 23.5969L19.9013 23.6025C19.9106 23.6044 19.9181 23.6062 19.9275 23.6062C19.9463 23.61 19.965 23.6137 19.9819 23.6156L20.01 23.6212C20.0288 23.625 20.0456 23.6287 20.0625 23.6306L20.0888 23.6362C20.1131 23.6419 20.1394 23.6456 20.1619 23.6512C20.2125 23.6625 20.2538 23.6756 20.2932 23.6887C20.3044 23.6925 20.3175 23.6944 20.3288 23.6981C20.3025 23.655 20.3344 23.5894 20.3831 23.5819L20.3569 23.5762L19.44 23.3962C19.32 23.3719 19.1963 23.3475 19.0932 23.2856C18.9807 23.2181 18.8944 23.1019 18.8775 22.9706C18.8606 22.8394 18.9225 22.6987 19.0388 22.6369C19.1269 22.5881 19.2319 22.59 19.3331 22.5919C19.8038 22.6069 20.2744 22.6612 20.7375 22.7531C20.7413 22.7531 20.7469 22.755 20.7506 22.755C20.7206 22.6969 20.7506 22.6144 20.8106 22.5881C20.8031 22.5881 20.7956 22.5862 20.79 22.5862C20.4188 22.5525 20.0475 22.5169 19.6763 22.4831C19.9032 22.2844 19.9369 21.9487 19.9538 21.6487C19.9538 21.6469 20.8369 21.6356 20.8744 21.6356Z" fill="#DBA689"/>
<path d="M15.2288 6.8325H4.22813C2.28563 6.8325 0.69751 5.39625 0.69751 3.63937V3.24563C0.69751 0.061875 5.21251 0 9.72751 0C14.2425 0 18.7575 0.09375 18.7575 3.24563V3.63937C18.7594 5.39437 17.1694 6.8325 15.2288 6.8325Z" fill="#C4C6C7"/>
<path d="M1.38562 5.51625L2.15812 6.8325H17.2969L18.1031 5.4525L1.38562 5.51625Z" fill="#C4C6C7"/>
<path d="M16.8656 9.9375C16.8656 9.9375 13.8075 8.93625 9.72939 8.93625C5.65127 8.93625 2.63252 9.9375 2.63252 9.9375L2.15814 6.83063C2.15814 6.83063 5.18252 5.99813 9.71627 5.99813C14.25 5.99813 17.2969 6.83063 17.2969 6.83063L16.8656 9.9375Z" fill="#C4C6C7"/>
<path d="M2.9944 5.9175C2.9044 5.9175 2.8144 5.87625 2.75627 5.7975C2.09252 4.90313 1.70627 3.3675 2.29877 2.28375C2.37752 2.13938 2.55752 2.08875 2.70002 2.16563C2.84252 2.24438 2.8969 2.42438 2.81815 2.56688C2.36065 3.40313 2.67002 4.6875 3.23252 5.445C3.26516 5.48909 3.28491 5.54138 3.28958 5.59605C3.29425 5.65071 3.28365 5.70559 3.25896 5.75458C3.23427 5.80357 3.19646 5.84474 3.14975 5.8735C3.10304 5.90227 3.04926 5.9175 2.9944 5.9175Z" fill="#959699"/>
<path d="M4.67251 5.86688C4.60979 5.8669 4.54797 5.85194 4.4922 5.82324C4.43643 5.79454 4.38833 5.75293 4.35189 5.70188C3.57001 4.60875 3.45001 2.76563 4.07064 1.41563C4.11473 1.32117 4.19442 1.24801 4.2923 1.21216C4.39018 1.1763 4.49827 1.18066 4.59294 1.22427C4.68762 1.26789 4.76117 1.34723 4.79751 1.44492C4.83386 1.54262 4.83004 1.65074 4.78689 1.74563C4.28251 2.84063 4.37439 4.37813 4.99314 5.24438C5.11876 5.4225 5.07939 5.66813 4.90126 5.79375C4.83189 5.84438 4.75126 5.86688 4.67251 5.86688Z" fill="#959699"/>
<path d="M15.5569 6.63375C15.435 6.63375 15.3131 6.58875 15.2194 6.49875C15.0206 6.31125 15.0131 6 15.1987 5.80125C15.8812 5.07937 16.1419 3.86437 15.8831 2.6325C15.8269 2.36625 15.9975 2.10562 16.2637 2.04937C16.53 1.995 16.7906 2.16375 16.8469 2.43C17.1712 3.975 16.815 5.52562 15.915 6.48C15.8175 6.58125 15.6881 6.63375 15.5569 6.63375Z" fill="#959699"/>
<path d="M17.2219 7.21875C9.95438 4.82625 2.32875 7.09312 2.25188 7.11562L2.07938 6.54937C2.15813 6.525 9.96188 4.20562 17.4056 6.65625L17.2219 7.21875Z" fill="#A7A9AC"/>
</g>
<defs>
<clipPath id="clip0">
<rect width="24" height="24" fill="white"/>
</clipPath>
</defs>
</svg>
