<svg width="24" height="22" viewBox="0 0 24 22" fill="none" xmlns="http://www.w3.org/2000/svg">
<path d="M24 12.1V19.8C24 20.3835 23.6839 20.9431 23.1213 21.3556C22.5587 21.7682 21.7957 22 21 22C20.2043 22 19.4413 21.7682 18.8787 21.3556C18.3161 20.9431 18 20.3835 18 19.8V14.3H15V3.3C15 2.42479 15.4741 1.58542 16.318 0.966548C17.1619 0.347678 18.3065 0 19.5 0L24 0V12.1ZM3 11C2.20435 11 1.44129 10.7682 0.87868 10.3556C0.31607 9.94306 0 9.38348 0 8.8V1.1C0 0.808262 0.158035 0.528473 0.43934 0.322183C0.720644 0.115893 1.10218 0 1.5 0C1.89782 0 2.27936 0.115893 2.56066 0.322183C2.84196 0.528473 3 0.808262 3 1.1V5.5H4.5V1.1C4.5 0.808262 4.65804 0.528473 4.93934 0.322183C5.22064 0.115893 5.60218 0 6 0C6.39782 0 6.77936 0.115893 7.06066 0.322183C7.34196 0.528473 7.5 0.808262 7.5 1.1V5.5H9V1.1C9 0.808262 9.15804 0.528473 9.43934 0.322183C9.72064 0.115893 10.1022 0 10.5 0C10.8978 0 11.2794 0.115893 11.5607 0.322183C11.842 0.528473 12 0.808262 12 1.1V8.8C12 9.38348 11.6839 9.94306 11.1213 10.3556C10.5587 10.7682 9.79565 11 9 11V19.8C9 20.3835 8.68393 20.9431 8.12132 21.3556C7.55871 21.7682 6.79565 22 6 22C5.20435 22 4.44129 21.7682 3.87868 21.3556C3.31607 20.9431 3 20.3835 3 19.8V11Z" fill="black"/>
</svg>
