<svg width="24" height="24" viewBox="0 0 24 24" fill="none" xmlns="http://www.w3.org/2000/svg">
<path d="M18.9919 22.6237C16.3725 22.6237 14.2406 20.4919 14.2406 17.8725C14.2406 15.2512 16.3725 13.1212 18.9919 13.1212C21.6131 13.1212 23.7431 15.2531 23.7431 17.8725C23.745 20.4919 21.6131 22.6237 18.9919 22.6237ZM18.9919 14.385C17.0681 14.385 15.5063 15.9506 15.5063 17.8725C15.5063 19.7944 17.07 21.36 18.9919 21.36C20.9138 21.36 22.4794 19.7944 22.4794 17.8725C22.4794 15.9487 20.9156 14.385 18.9919 14.385Z" fill="#2F2F2F"/>
<path d="M5.00812 22.6237C2.38874 22.6237 0.256866 20.4919 0.256866 17.8725C0.256866 15.2512 2.38874 13.1212 5.00812 13.1212C7.62937 13.1212 9.76124 15.2531 9.76124 17.8725C9.75937 20.4919 7.62749 22.6237 5.00812 22.6237ZM5.00812 14.385C3.08624 14.385 1.52249 15.9506 1.52249 17.8725C1.52249 19.7944 3.08624 21.36 5.00812 21.36C6.92999 21.36 8.49562 19.7944 8.49562 17.8725C8.49374 15.9487 6.92999 14.385 5.00812 14.385Z" fill="#2F2F2F"/>
<path d="M0.630013 17.2031C1.01626 17.1844 1.13439 16.6781 1.25064 16.3912C1.82251 14.955 3.28126 13.9837 4.79439 13.83C5.11689 13.7981 5.76376 13.8225 5.74876 13.3331C5.74314 13.1062 5.53126 13.0462 5.34564 13.005C5.11501 12.9525 4.87314 12.9844 4.63876 12.9825C3.38251 12.975 2.16189 13.7006 1.38564 14.6587C1.12126 14.9831 0.855013 15.2269 0.676888 15.6131C0.573763 15.8381 0.470638 16.0556 0.376888 16.2862C0.296263 16.4794 0.206263 16.7006 0.262513 16.9162C0.300013 17.0531 0.420013 17.1825 0.564388 17.1994C0.585013 17.2031 0.609388 17.205 0.630013 17.2031Z" fill="#2F2F2F"/>
<path d="M19.4175 17.385L15.315 11.8594V10.8319C15.315 10.7568 15.3002 10.6824 15.2715 10.613C15.2427 10.5436 15.2006 10.4806 15.1475 10.4275C15.0944 10.3744 15.0314 10.3323 14.962 10.3035C14.8926 10.2748 14.8182 10.26 14.7431 10.26C14.668 10.26 14.5937 10.2748 14.5243 10.3035C14.4549 10.3323 14.3919 10.3744 14.3387 10.4275C14.2856 10.4806 14.2435 10.5436 14.2148 10.613C14.186 10.6824 14.1712 10.7568 14.1712 10.8319V11.475H8.72062C8.76375 11.2631 8.80312 11.0512 8.84062 10.8394L8.88187 10.5956C9.03375 9.675 9.12937 9.57937 9.5025 9.57937H9.51562C9.81937 9.58125 10.1212 9.58125 10.425 9.58125H10.875C11.0267 9.58125 11.1721 9.521 11.2794 9.41375C11.3866 9.3065 11.4469 9.16104 11.4469 9.00937C11.4469 8.8577 11.3866 8.71224 11.2794 8.605C11.1721 8.49775 11.0267 8.4375 10.875 8.4375H10.4212C10.1194 8.4375 9.81937 8.4375 9.5175 8.43562H9.50625C8.0775 8.43562 7.87312 9.67125 7.75125 10.41L7.71375 10.6387C7.29187 13.0181 6.64687 15.4725 4.80562 17.3194C4.8 17.3269 4.79062 17.3344 4.78312 17.3437C4.76062 17.3531 4.73812 17.3662 4.71562 17.3794C4.65106 17.4177 4.59471 17.4685 4.54984 17.5287C4.50496 17.5889 4.47244 17.6574 4.45414 17.7303C4.43585 17.8031 4.43213 17.8789 4.44322 17.9532C4.45431 18.0274 4.47998 18.0988 4.51875 18.1631C4.62937 18.3469 4.81875 18.4612 5.02875 18.4687H5.04937C5.37375 18.4687 5.55937 18.2231 5.6475 18.0956C7.06875 16.6575 7.83937 14.9381 8.32875 13.1662L11.6175 18.0431C11.6344 18.0675 11.655 18.0862 11.6737 18.1087C11.6812 18.1162 11.6887 18.1256 11.6962 18.135C11.7431 18.18 11.7956 18.2156 11.8537 18.2419C11.8669 18.2475 11.88 18.2512 11.8931 18.2569C11.9569 18.2812 12.0225 18.2962 12.0919 18.2962H18.96C19.1756 18.2962 19.3725 18.1744 19.47 17.9812C19.5675 17.7881 19.5469 17.5575 19.4175 17.385ZM12 16.5675L9.33937 12.6225H13.8431L12 16.5675ZM12.99 17.1525L14.8556 13.1606L17.8219 17.1525H12.99Z" fill="#ED6C30"/>
<path d="M16.3969 9.60188C16.14 9.50438 15.8794 9.58125 15.6056 9.61125C15.2719 9.65063 14.9362 9.69 14.6025 9.72188C14.0475 9.77625 13.4944 9.91125 12.9431 9.97125C12.6225 10.005 12.3619 10.29 12.2962 10.59C12.21 11.0006 12.5137 11.1994 12.8681 11.3231C13.305 11.4769 13.7719 11.505 14.2294 11.5406C14.7262 11.5781 15.2306 11.6513 15.7312 11.6381C16.2187 11.625 16.725 11.3494 16.9369 10.8994C17.1562 10.4325 16.9444 9.89063 16.4925 9.645C16.4606 9.62813 16.4287 9.615 16.3969 9.60188Z" fill="#2F2F2F"/>
<path d="M8.94187 8.43562C9.19687 8.23125 9.66937 8.1975 9.98062 8.18437C10.4269 8.1675 10.8844 8.17312 11.3325 8.18437C11.6681 8.19187 11.9719 8.4975 12.0206 8.82562C12.0412 8.96437 12.0319 9.16312 11.9512 9.28312C11.43 10.0481 10.5037 9.73125 9.73687 9.83062C9.33749 9.88312 9.10687 9.78937 8.87812 9.44062C8.66999 9.13312 8.62124 8.69062 8.94187 8.43562Z" fill="#2F2F2F"/>
<path fill-rule="evenodd" clip-rule="evenodd" d="M12.4144 17.8106C12.315 17.9025 12.3169 18.0844 12.27 18.2025C12.2044 18.3769 12.165 18.54 12.1537 18.7237C12.1444 18.9131 12.075 19.0856 12.0525 19.275C11.9981 19.7025 12.5869 19.6012 12.6994 19.305C12.8025 19.0312 12.8362 18.735 12.8925 18.45C12.9337 18.2456 13.1531 17.8237 12.8456 17.6962C12.7575 17.6606 12.495 17.7431 12.4275 17.7956C12.4219 17.8012 12.4181 17.805 12.4144 17.8106Z" fill="#2F2F2F"/>
<path fill-rule="evenodd" clip-rule="evenodd" d="M12.6637 19.0875C12.6094 19.0875 12.555 19.0875 12.5062 19.0856C12.3 19.0781 12.0844 19.0444 11.8781 19.0612C11.4994 19.0931 11.0081 19.3594 11.0381 19.7981C11.0737 20.3437 11.4844 20.2762 11.9025 20.2762C12.3206 20.2762 13.0275 20.3831 13.3762 20.0906C13.635 19.8712 13.5675 19.3369 13.2731 19.1756C13.0931 19.0781 12.8719 19.0856 12.6637 19.0875Z" fill="#2F2F2F"/>
</svg>
